<?xml version="1.0" encoding="UTF-8"?>
<!DOCTYPE svg PUBLIC "-//W3C//DTD SVG 1.1//EN" "http://www.w3.org/Graphics/SVG/1.1/DTD/svg11.dtd">
<!-- Creator: CorelDRAW 2019 (64-Bit) -->
<svg xmlns="http://www.w3.org/2000/svg" xml:space="preserve" width="1289px" height="480px" version="1.1" style="shape-rendering:geometricPrecision; text-rendering:geometricPrecision; image-rendering:optimizeQuality; fill-rule:evenodd; clip-rule:evenodd"
viewBox="0 0 1289 479.84"
 xmlns:xlink="http://www.w3.org/1999/xlink"
 xmlns:xodm="http://www.corel.com/coreldraw/odm/2003">
 <defs>
  <style type="text/css">
   <![CDATA[
    .fil1 {fill:#EC6722}
    .fil0 {fill:#007697}
   ]]>
  </style>
 </defs>
 <g id="Layer_x0020_1">
  <metadata id="CorelCorpID_0Corel-Layer"/>
  <path class="fil0" d="M443.29 0c15.03,10.29 30.32,25.9 30.32,40.98l0 265.72c0,14.89 -14.04,35.95 -26.82,44.34 45.09,0 90.19,0 135.28,0 87.52,-3.61 140.61,-35.21 146.96,-101.46 4.45,-46.47 -20.1,-82.61 -80.42,-102.99 30.09,-11.45 46.27,-36.39 47.75,-70.78 2.54,-59.17 -66.32,-75.81 -109.63,-75.81l-143.44 0zm83.97 142.28l0 -110.79 41.51 0c47.1,0 69.28,23.11 69.28,57.94 -0.01,34.83 -31.86,52.85 -71.6,52.85l-39.19 0zm44.25 174.94l-44.25 0 0 -143.45 50.14 0c74.71,0 97.31,44.92 93.3,81.64 -4.01,36.71 -35.56,61.81 -99.19,61.81zm276.63 -317.22l-73.51 0c16.35,18.19 23.48,27.74 23.48,55.94l0 242.16c0,27.89 -12.37,45.01 -30.1,57.12l97.81 0c-14.52,-8.86 -30.16,-26.27 -30.16,-57.76l0 -213.93c49.42,66 98.83,132.01 148.24,198.02 28.02,36.65 60.5,67.72 98.37,92.05l0 -318.94c0,-31.94 12.88,-44.12 30.11,-54.66l-95.36 0c17.28,12.82 26.44,27.31 26.44,53.39l0 213.59 -195.32 -266.98zm318.36 355.22c19.79,-13.12 29.85,-28.52 29.85,-48.52l0 -253.65c0,-29.99 -8.65,-36.77 -25.63,-53.05l112.89 0c-19.48,10.97 -33.15,33.37 -33.15,53.05l0 252.95c0,19.41 11.48,37.19 27.06,49.22l-111.02 0z"/>
  <path class="fil1" d="M0 0l108.98 0c-5.7,9.77 -10.01,31.73 1.01,81.05 9.8,43.84 38.12,89.58 67.67,125.73l-37.13 30.48 -140.53 -176.57 0 -60.69zm159.14 0l191.85 0 0 46.49c-14.84,-8.67 -41.9,-17.05 -81.64,-1.16 -64.11,25.65 -69.6,100.75 -69.6,100.75 -35.47,-42.84 -58.8,-113.08 -40.61,-146.08zm191.85 108.16l0 138.36c-43.6,16.55 -104.74,-26.47 -120.11,-77.55 -22.26,-74.02 30.23,-100.74 67.78,-93.41 28.06,5.47 44.35,22.2 52.33,32.6zm0 161.08l0 81.76 -117.58 0 23.57 -19.35c-15.38,1.87 -45.6,-5.36 -60.31,-23.85l-41.39 -52.01 37.84 -31.06c23.25,25.63 45.39,44.05 57.91,49.57 26.81,11.83 57.01,17.54 99.96,-5.06zm-183.24 81.76l-128.45 0 80.03 -65.7c6.55,8.23 12.88,16.18 18.88,23.73 11.79,14.81 21.69,29.44 29.54,41.97zm-165.77 0l-1.98 0 0 -215.64c30.56,38.4 69.61,87.46 104.58,131.41l-102.6 84.23z"/>
  <path class="fil0" d="M1214.49 452.29l0 0 6.6 -0.97c0.39,2.52 1.35,4.46 3.1,6.01 1.75,1.36 4.08,2.14 7.18,2.14 2.91,0 5.24,-0.78 6.79,-1.95 1.36,-1.16 2.14,-2.71 2.14,-4.46 0,-1.36 -0.59,-2.52 -1.94,-3.49 -0.97,-0.58 -3.3,-1.36 -6.79,-2.13 -4.85,-1.37 -8.35,-2.33 -10.09,-3.3 -1.94,-0.97 -3.5,-2.14 -4.47,-3.69 -0.97,-1.55 -1.36,-3.3 -1.36,-5.24 0,-1.75 0.39,-3.49 1.17,-4.85 0.77,-1.56 1.94,-2.72 3.3,-3.69 0.97,-0.78 2.52,-1.55 4.27,-1.94 1.74,-0.58 3.68,-0.97 5.62,-0.97 3.11,0 5.82,0.58 8.15,1.36 2.33,0.97 4.08,2.13 5.24,3.68 0.97,1.56 1.75,3.5 2.33,6.02l-6.59 0.97c-0.4,-2.13 -1.17,-3.68 -2.53,-4.85 -1.36,-0.97 -3.49,-1.55 -6.01,-1.55 -3.11,0 -5.24,0.38 -6.6,1.36 -1.36,1.16 -1.94,2.33 -1.94,3.68 0,0.78 0.38,1.56 0.78,2.33 0.58,0.58 1.35,1.17 2.52,1.75 0.77,0.19 2.71,0.77 6.01,1.74 4.66,1.17 7.96,2.14 9.7,3.11 1.95,0.78 3.5,1.94 4.47,3.49 0.97,1.36 1.55,3.3 1.55,5.63 0,2.13 -0.58,4.27 -1.94,6.21 -1.16,1.94 -3.1,3.49 -5.63,4.66 -2.33,0.97 -5.04,1.55 -8.15,1.55 -5.24,0 -9.12,-1.16 -11.64,-3.3 -2.72,-2.13 -4.46,-5.24 -5.24,-9.31zm55.5 -11.07c4.46,-0.58 7.76,-1.35 10.09,-2.13 0,-0.97 0,-1.55 0,-1.75 0,-2.71 -0.58,-4.65 -1.94,-5.82 -1.56,-1.35 -4.08,-2.13 -7.57,-2.13 -0.2,0 -0.39,0 -0.58,0 -2.72,0 -4.86,0.58 -6.21,1.55 -1.55,1.17 -2.72,3.11 -3.3,5.82l-6.6 -0.77c0.58,-2.91 1.55,-5.05 2.91,-6.79 1.36,-1.75 3.3,-3.11 6.02,-3.89 2.13,-0.77 4.46,-1.36 7.18,-1.36 0.58,-0.19 1.16,-0.19 1.55,-0.19 3.49,0 6.21,0.58 8.15,1.36 2.13,0.77 3.69,1.75 4.66,2.91 0.97,1.17 1.74,2.72 2.13,4.46 0.19,1.17 0.39,3.3 0.39,6.21l0 8.74c0,6.2 0,10.28 0.39,11.83 0.19,1.55 0.77,3.3 1.74,4.66l-6.98 0c-0.78,-1.36 -1.17,-2.91 -1.36,-4.85 -2.52,2.13 -4.85,3.69 -7.18,4.46 -1.16,0.39 -2.33,0.78 -3.49,0.97 -1.17,0.19 -2.53,0.39 -3.88,0.39 -4.27,0 -7.57,-1.16 -9.9,-3.11 -2.33,-2.13 -3.49,-4.85 -3.49,-8.15 0,-1.94 0.58,-3.68 1.35,-5.23 0.98,-1.56 1.94,-2.92 3.5,-3.89 1.35,-0.97 2.91,-1.74 4.66,-2.13 1.35,-0.39 3.29,-0.78 6.01,-0.97 0.58,-0.2 1.16,-0.2 1.75,-0.2zm0 18.25c1.74,-0.2 3.29,-0.78 4.65,-1.56 1.94,-0.97 3.5,-2.52 4.47,-4.46 0.58,-1.55 0.97,-3.88 0.97,-6.79l0 -2.33c-2.33,0.97 -5.63,1.74 -10.09,2.33 -0.2,0 -0.59,0.19 -0.78,0.19 -2.72,0.39 -4.66,0.78 -5.82,1.36 -1.16,0.39 -1.94,1.17 -2.53,2.14 -0.77,0.97 -0.96,1.94 -0.96,3.1 0,1.75 0.58,3.3 1.94,4.46 1.36,1.17 3.29,1.75 6.01,1.75 0.78,0 1.36,0 2.14,-0.19zm-1267.87 4.46l0 0 0 -54.14 10.86 0 12.81 38.42c1.17,3.49 2.14,6.21 2.52,7.96 0.78,-1.94 1.75,-4.85 2.91,-8.73l13 -37.65 9.71 0 0 54.14 -6.99 0 0 -45.21 -15.72 45.21 -6.4 0 -15.72 -45.99 0 45.99 -6.98 0zm104.39 0l0 0 0 -54.14 6.79 0 0 54.14 -6.79 0zm-26 -23.29l11.06 0c-0.39,-3.3 -1.16,-5.82 -2.52,-7.56 -2.14,-2.53 -4.85,-3.69 -8.15,-3.69 -0.19,0 -0.19,0 -0.39,0 -2.91,0 -5.43,0.97 -7.37,2.91 -2.14,2.13 -3.3,4.85 -3.5,8.34l10.87 0zm0 18.83c0.2,0 0.39,0 0.58,0 2.53,0 4.47,-0.78 6.21,-1.95 1.75,-1.35 3.11,-3.29 4.27,-6.2l6.79 0.77c-1.16,4.08 -3.1,7.18 -6.01,9.51 -2.91,2.14 -6.79,3.3 -11.26,3.3 -0.19,0 -0.38,0 -0.58,0 -5.43,-0.2 -9.9,-1.94 -13,-5.43 -3.49,-3.5 -5.04,-8.35 -5.04,-14.75 0,-6.6 1.55,-11.84 5.04,-15.33 3.3,-3.69 7.76,-5.44 13,-5.63 0.2,0 0.2,0 0.2,0 5.23,0 9.5,1.94 12.8,5.44 3.49,3.49 5.05,8.53 5.05,15.13 0,0.39 0,0.97 0,1.74l-18.05 0 -11.25 0c0.19,4.28 1.55,7.57 3.68,9.9 2.14,2.14 4.66,3.3 7.57,3.5zm84.8 19.6l0 0 -0.78 -6.22c1.55,0.39 2.72,0.59 3.88,0.59 1.36,0 2.52,-0.2 3.49,-0.78 0.97,-0.39 1.56,-1.16 2.14,-2.13 0.58,-0.59 1.16,-2.14 2.13,-4.85 0,-0.39 0.2,-0.98 0.59,-1.56l-14.95 -39.39 7.18 0 8.15 22.71c1.17,2.91 2.14,6.01 2.91,9.11 0.78,-3.1 1.56,-6.01 2.72,-8.92l8.34 -22.9 6.6 0 -14.94 39.97c-1.55,4.27 -2.72,7.18 -3.69,8.93 -1.16,2.14 -2.52,3.69 -4.07,4.66 -1.55,1.16 -3.3,1.55 -5.44,1.55 -1.35,0 -2.71,-0.19 -4.26,-0.77zm-26.78 -37.85c4.46,-0.58 7.76,-1.35 10.09,-2.13 0,-0.97 0,-1.55 0,-1.75 0,-2.71 -0.58,-4.65 -1.94,-5.82 -1.75,-1.35 -4.27,-2.13 -7.57,-2.13 -0.19,0 -0.39,0 -0.58,0 -2.91,0 -4.85,0.58 -6.41,1.55 -1.35,1.17 -2.52,3.11 -3.29,5.82l-6.41 -0.77c0.59,-2.91 1.56,-5.05 2.91,-6.79 1.36,-1.75 3.3,-3.11 5.82,-3.89 2.14,-0.77 4.66,-1.36 7.38,-1.36 0.39,-0.19 0.97,-0.19 1.55,-0.19 3.3,0 6.02,0.58 8.15,1.36 2.13,0.77 3.69,1.75 4.66,2.91 0.97,1.17 1.75,2.72 2.13,4.46 0.19,1.17 0.19,3.3 0.19,6.21l0 8.74c0,6.2 0.2,10.28 0.59,11.83 0.19,1.55 0.78,3.3 1.55,4.66l-6.99 0c-0.58,-1.36 -0.96,-2.91 -1.16,-4.85 -2.52,2.13 -4.85,3.69 -7.18,4.46 -1.16,0.39 -2.33,0.78 -3.49,0.97 -1.36,0.19 -2.53,0.39 -3.88,0.39 -4.27,0 -7.57,-1.16 -9.9,-3.11 -2.33,-2.13 -3.49,-4.85 -3.49,-8.15 0,-1.94 0.39,-3.68 1.36,-5.23 0.77,-1.56 1.94,-2.92 3.3,-3.89 1.55,-0.97 3.1,-1.74 4.85,-2.13 1.35,-0.39 3.29,-0.78 6.01,-0.97 0.58,-0.2 1.16,-0.2 1.75,-0.2zm0 18.25c1.55,-0.2 3.1,-0.78 4.66,-1.56 1.94,-0.97 3.29,-2.52 4.26,-4.46 0.78,-1.55 1.17,-3.88 1.17,-6.79l0 -2.33c-2.33,0.97 -5.63,1.74 -10.09,2.33 -0.39,0 -0.59,0.19 -0.78,0.19 -2.72,0.39 -4.65,0.78 -5.82,1.36 -1.16,0.39 -2.13,1.17 -2.72,2.14 -0.58,0.97 -0.77,1.94 -0.77,3.1 0,1.75 0.58,3.3 1.94,4.46 1.36,1.17 3.3,1.75 5.82,1.75 0.78,0 1.55,0 2.33,-0.19zm187.64 4.46l0 0 0 -54.14 7.37 0 28.52 42.5 0 -42.5 6.8 0 0 54.14 -7.38 0 -28.33 -42.5 0 42.5 -6.98 0zm-38.62 0l0 0 0 -39.2 6.8 0 0 39.2 -6.8 0zm0 -46.38l0 0 0 -7.76 6.8 0 0 7.76 -6.8 0zm-42.1 46.38l0 0 0 -39.2 6.01 0 0 5.63c2.91,-4.27 7.18,-6.6 12.61,-6.6 2.33,0 4.47,0.58 6.41,1.36 1.94,0.77 3.49,1.94 4.46,3.3 0.97,1.35 1.75,3.1 2.13,5.04 0.2,1.17 0.39,3.3 0.39,6.41l0 24.06 -6.79 0 0 -23.87c0,-2.72 -0.19,-4.66 -0.78,-6.01 -0.38,-1.36 -1.35,-2.53 -2.71,-3.3 -1.36,-0.78 -2.72,-1.17 -4.66,-1.17 -2.72,0 -5.24,0.97 -7.18,2.72 -2.13,1.75 -3.1,5.24 -3.1,10.29l0 21.34 -6.79 0zm-26.97 -22.71c4.46,-0.58 7.76,-1.35 10.08,-2.13 0,-0.97 0,-1.55 0,-1.75 0,-2.71 -0.58,-4.65 -1.94,-5.82 -1.74,-1.35 -4.27,-2.13 -7.56,-2.13 -0.2,0 -0.39,0 -0.58,0 -2.92,0 -5.05,0.58 -6.41,1.55 -1.36,1.17 -2.52,3.11 -3.3,5.82l-6.4 -0.77c0.58,-2.91 1.55,-5.05 2.91,-6.79 1.36,-1.75 3.3,-3.11 5.82,-3.89 2.14,-0.77 4.66,-1.36 7.38,-1.36 0.38,-0.19 0.96,-0.19 1.55,-0.19 3.29,0 6.01,0.58 8.15,1.36 2.13,0.77 3.68,1.75 4.65,2.91 0.97,1.17 1.56,2.72 2.14,4.46 0.19,1.17 0.19,3.3 0.19,6.21l0 8.74c0,6.2 0.2,10.28 0.39,11.83 0.39,1.55 0.97,3.3 1.75,4.66l-6.99 0c-0.58,-1.36 -1.16,-2.91 -1.36,-4.85 -2.33,2.13 -4.66,3.69 -6.98,4.46 -1.17,0.39 -2.33,0.78 -3.49,0.97 -1.36,0.19 -2.53,0.39 -3.89,0.39 -4.27,0 -7.57,-1.16 -9.89,-3.11 -2.33,-2.13 -3.5,-4.85 -3.5,-8.15 0,-1.94 0.39,-3.68 1.36,-5.23 0.78,-1.56 1.94,-2.92 3.3,-3.89 1.55,-0.97 3.11,-1.74 4.85,-2.13 1.36,-0.39 3.3,-0.78 5.82,-0.97 0.78,-0.2 1.36,-0.2 1.95,-0.2zm0 18.25c1.55,-0.2 3.1,-0.78 4.46,-1.56 2.13,-0.97 3.49,-2.52 4.46,-4.46 0.78,-1.55 1.16,-3.88 1.16,-6.79l0 -2.33c-2.32,0.97 -5.82,1.74 -10.08,2.33 -0.39,0 -0.59,0.19 -0.78,0.19 -2.72,0.39 -4.66,0.78 -5.82,1.36 -1.17,0.39 -2.14,1.17 -2.72,2.14 -0.58,0.97 -0.97,1.94 -0.97,3.1 0,1.75 0.78,3.3 2.13,4.46 1.36,1.17 3.3,1.75 5.83,1.75 0.77,0 1.55,0 2.33,-0.19zm177.54 -18.83l11.06 0c-0.38,-3.3 -1.16,-5.82 -2.52,-7.56 -2.14,-2.53 -4.85,-3.69 -8.34,-3.69 0,0 0,0 -0.2,0 -2.91,0 -5.43,0.97 -7.37,2.91 -2.14,2.13 -3.3,4.85 -3.5,8.34l10.87 0zm0 18.83c0.2,0 0.39,0 0.58,0 2.53,0 4.47,-0.78 6.21,-1.95 1.75,-1.35 3.11,-3.29 4.08,-6.2l6.98 0.77c-1.16,4.08 -3.1,7.18 -6.01,9.51 -2.91,2.14 -6.79,3.3 -11.26,3.3 -0.19,0 -0.38,0 -0.58,0 -5.43,-0.2 -9.9,-1.94 -13.19,-5.43 -3.3,-3.5 -5.05,-8.35 -5.05,-14.75 0,-6.6 1.75,-11.84 5.24,-15.33 3.3,-3.69 7.76,-5.44 13,-5.63 0,0 0.2,0 0.2,0 5.23,0 9.51,1.94 12.8,5.44 3.3,3.49 5.05,8.53 5.05,15.13 0,0.39 0,0.97 0,1.74l-18.05 0 -11.25 0c0.19,4.28 1.35,7.57 3.68,9.9 1.95,2.14 4.66,3.3 7.57,3.5zm41.14 -0.98c3.1,0 5.63,-1.16 7.76,-3.49 2.14,-2.33 3.11,-6.01 3.11,-11.06 0,-4.85 -1.17,-8.54 -3.3,-10.86 -1.94,-2.53 -4.47,-3.69 -7.57,-3.69 -3.11,0 -5.43,1.16 -7.57,3.49 -2.13,2.52 -3.1,6.02 -3.1,10.87 0,5.04 0.97,8.73 3.1,11.25 1.94,2.33 4.46,3.49 7.57,3.49zm0 15.92c2.71,-0.2 4.85,-0.78 6.4,-1.94 1.75,-1.17 2.72,-2.91 3.5,-5.05 0.19,-1.36 0.38,-4.27 0.38,-8.53 -2.71,3.29 -6.21,4.85 -10.28,5.04 -0.2,0 -0.39,0 -0.58,0 -5.44,0 -9.51,-1.94 -12.62,-5.82 -2.91,-3.88 -4.27,-8.54 -4.27,-13.97 0,-3.69 0.59,-7.18 1.94,-10.29 1.37,-3.3 3.31,-5.63 5.83,-7.37 2.71,-1.75 5.62,-2.72 9.12,-2.72 0.19,0 0.38,0 0.58,0 4.46,0.19 7.96,2.13 10.87,5.63l0 -4.66 6.2 0 0 33.96c0,6.01 -0.58,10.48 -1.94,13 -1.16,2.52 -3.1,4.46 -5.82,6.02 -2.52,1.36 -5.62,2.13 -9.31,2.13 -0.2,0 -0.39,0 -0.78,0 -4.65,0 -8.34,-0.97 -11.25,-3.1 -2.91,-2.14 -4.27,-5.24 -4.27,-9.51l6.6 0.97c0.19,1.94 0.97,3.49 2.13,4.27 1.75,1.35 4.08,1.94 6.79,1.94 0.39,0 0.58,0 0.78,0zm153.87 -10.48l0 0 0 -54.14 7.18 0 0 26.97 26.78 -26.97 9.7 0 -22.7 21.93 23.67 32.21 -9.31 0 -19.4 -27.36 -8.74 8.73 0 18.63 -7.18 0zm-40.94 0l0 0 0 -7.57 7.57 0 0 7.57c0,2.91 -0.39,5.04 -1.55,6.79 -0.97,1.75 -2.52,3.1 -4.66,3.88l-1.74 -2.72c1.35,-0.58 2.32,-1.55 3.1,-2.71 0.58,-1.17 0.97,-2.91 0.97,-5.24l-3.69 0zm-18.43 0l0 0 0 -39.2 6.6 0 0 39.2 -6.6 0zm0 -46.38l0 0 0 -7.76 6.6 0 0 7.76 -6.6 0zm-25.42 46.38l0 0 0 -39.2 6.01 0 0 6.02c1.55,-2.91 2.91,-4.66 4.27,-5.63 1.17,-0.78 2.72,-1.36 4.27,-1.36 2.14,0 4.46,0.78 6.79,2.13l-2.33 6.22c-1.55,-0.97 -3.29,-1.36 -4.85,-1.36 -1.35,0 -2.71,0.39 -3.88,1.36 -1.16,0.77 -1.94,1.94 -2.52,3.49 -0.77,2.52 -1.16,5.04 -1.16,7.76l0 20.57 -6.6 0zm-26.01 -23.29l10.87 0c-0.19,-3.3 -0.97,-5.82 -2.33,-7.56 -2.13,-2.53 -5.04,-3.69 -8.34,-3.69 0,0 -0.2,0 -0.2,0 -2.9,0 -5.43,0.97 -7.56,2.91 -1.94,2.13 -3.11,4.85 -3.3,8.34l10.86 0zm0 18.83c0.2,0 0.4,0 0.59,0 2.33,0 4.46,-0.78 6.21,-1.95 1.74,-1.35 3.1,-3.29 4.07,-6.2l6.8 0.77c-0.97,4.08 -2.92,7.18 -6.02,9.51 -2.91,2.14 -6.6,3.3 -11.06,3.3 -0.19,0 -0.39,0 -0.59,0 -5.43,-0.2 -9.89,-1.94 -13.19,-5.43 -3.3,-3.5 -5.04,-8.35 -5.04,-14.75 0,-6.6 1.74,-11.84 5.24,-15.33 3.29,-3.69 7.56,-5.44 12.99,-5.63 0,0 0,0 0.2,0 5.24,0 9.51,1.94 12.81,5.44 3.29,3.49 5.04,8.53 5.04,15.13 0,0.39 0,0.97 -0.19,1.74l-17.86 0 -11.25 0c0.2,4.28 1.36,7.57 3.69,9.9 1.94,2.14 4.46,3.3 7.56,3.5zm176.39 -18.83l11.06 0c-0.39,-3.3 -1.16,-5.82 -2.52,-7.56 -2.14,-2.53 -4.85,-3.69 -8.35,-3.69 0,0 0,0 -0.19,0 -2.91,0 -5.43,0.97 -7.37,2.91 -2.14,2.13 -3.3,4.85 -3.5,8.34l10.87 0zm0 18.83c0.19,0 0.39,0 0.58,0 2.33,0 4.47,-0.78 6.21,-1.95 1.75,-1.35 3.11,-3.29 4.08,-6.2l6.98 0.77c-1.16,4.08 -3.1,7.18 -6.01,9.51 -3.11,2.14 -6.79,3.3 -11.26,3.3 -0.19,0 -0.39,0 -0.58,0 -5.43,-0.2 -9.9,-1.94 -13,-5.43 -3.3,-3.5 -5.04,-8.35 -5.04,-14.75 0,-6.6 1.74,-11.84 5.23,-15.33 3.11,-3.69 7.57,-5.44 12.81,-5.63 0,0 0.19,0 0.19,0 5.24,0 9.51,1.94 12.81,5.44 3.3,3.49 5.05,8.53 5.05,15.13 0,0.39 0,0.97 0,1.74l-18.05 0 -11.06 0c0,4.28 1.16,7.57 3.49,9.9 1.95,2.14 4.47,3.3 7.57,3.5zm42.69 -35.52c0.39,-0.19 0.58,-0.19 0.78,-0.19 2.52,0 4.65,0.58 6.98,1.55 2.13,0.97 3.88,2.33 5.24,4.08 1.36,1.75 2.52,3.88 3.3,6.4 0.78,2.52 1.16,5.24 1.16,7.96 0,6.79 -1.74,12.03 -5.04,15.52 -3.3,3.69 -7.38,5.63 -12.03,5.63 0,0 -0.2,0 -0.39,0 -4.27,-0.2 -7.76,-2.13 -10.48,-5.82l0 4.85 -6.01 0 0 -54.14 6.59 0 0 19.41c2.53,-3.31 6.02,-5.25 9.9,-5.25zm0 35.52c2.91,-0.2 5.43,-1.36 7.37,-3.88 2.14,-2.53 3.3,-6.21 3.3,-11.26 0,-5.05 -0.97,-8.93 -3.1,-11.25 -1.94,-2.53 -4.47,-3.69 -7.38,-3.69 0,0 0,0 -0.19,0 -2.72,0 -5.24,1.16 -7.37,3.69 -2.14,2.52 -3.11,6.2 -3.11,11.06 0,4.65 0.58,7.95 1.94,10.09 2.14,3.49 4.85,5.24 8.54,5.24zm67.72 4.46l0 0 0 -39.2 5.82 0 0 5.63c2.91,-4.27 7.18,-6.6 12.61,-6.6 2.33,0 4.47,0.58 6.41,1.36 2.13,0.77 3.49,1.94 4.46,3.3 0.97,1.35 1.75,3.1 2.13,5.04 0.2,1.17 0.39,3.3 0.39,6.41l0 24.06 -6.59 0 0 -23.87c0,-2.72 -0.39,-4.66 -0.78,-6.01 -0.58,-1.36 -1.55,-2.53 -2.91,-3.3 -1.17,-0.78 -2.72,-1.17 -4.66,-1.17 -2.72,0 -5.24,0.97 -7.18,2.72 -2.13,1.75 -3.1,5.24 -3.1,10.29l0 21.34 -6.6 0zm-27.17 -22.71c4.47,-0.58 7.76,-1.35 10.1,-2.13 0,-0.97 0,-1.55 0,-1.75 0,-2.71 -0.59,-4.65 -1.94,-5.82 -1.75,-1.35 -4.28,-2.13 -7.57,-2.13 -0.2,0 -0.39,0 -0.59,0 -2.91,0 -4.85,0.58 -6.4,1.55 -1.36,1.17 -2.52,3.11 -3.3,5.82l-6.4 -0.77c0.58,-2.91 1.55,-5.05 2.91,-6.79 1.36,-1.75 3.3,-3.11 5.82,-3.89 2.14,-0.77 4.66,-1.36 7.37,-1.36 0.39,-0.19 0.97,-0.19 1.56,-0.19 3.29,0 6.01,0.58 8.15,1.36 2.13,0.77 3.68,1.75 4.65,2.91 0.97,1.17 1.75,2.72 2.14,4.46 0.19,1.17 0.19,3.3 0.19,6.21l0 8.74c0,6.2 0.2,10.28 0.58,11.83 0.2,1.55 0.78,3.3 1.56,4.66l-6.99 0c-0.58,-1.36 -0.97,-2.91 -1.16,-4.85 -2.52,2.13 -4.86,3.69 -7.18,4.46 -1.17,0.39 -2.33,0.78 -3.5,0.97 -1.35,0.19 -2.52,0.39 -3.88,0.39 -4.27,0 -7.57,-1.16 -9.89,-3.11 -2.33,-2.13 -3.5,-4.85 -3.5,-8.15 0,-1.94 0.39,-3.68 1.36,-5.23 0.78,-1.56 1.94,-2.92 3.3,-3.89 1.56,-0.97 3.11,-1.74 4.85,-2.13 1.36,-0.39 3.3,-0.78 6.02,-0.97 0.58,-0.2 1.16,-0.2 1.74,-0.2zm0 18.25c1.56,-0.2 3.11,-0.78 4.47,-1.56 2.13,-0.97 3.49,-2.52 4.46,-4.46 0.78,-1.55 1.17,-3.88 1.17,-6.79l0 -2.33c-2.34,0.97 -5.83,1.74 -10.1,2.33 -0.38,0 -0.58,0.19 -0.77,0.19 -2.72,0.39 -4.66,0.78 -5.82,1.36 -1.17,0.39 -2.14,1.17 -2.72,2.14 -0.58,0.97 -0.77,1.94 -0.77,3.1 0,1.75 0.58,3.3 1.93,4.46 1.36,1.17 3.3,1.75 5.83,1.75 0.77,0 1.55,0 2.32,-0.19zm84.22 -0.98c3.1,0 5.63,-1.16 7.57,-3.49 2.13,-2.33 3.1,-6.01 3.1,-11.06 0,-4.85 -0.97,-8.54 -3.1,-10.86 -2.14,-2.53 -4.66,-3.69 -7.57,-3.69 0,0 0,0 -0.19,0 -2.92,0 -5.44,1.16 -7.57,3.49 -1.94,2.52 -3.11,6.02 -3.11,10.87 0,5.04 1.17,8.73 3.11,11.25 2.13,2.33 4.65,3.49 7.76,3.49zm0 15.92c2.72,-0.2 4.85,-0.78 6.4,-1.94 1.55,-1.17 2.72,-2.91 3.3,-5.05 0.39,-1.36 0.58,-4.27 0.58,-8.53 -2.91,3.29 -6.21,4.85 -10.28,5.04 -0.19,0 -0.39,0 -0.58,0 -5.44,0 -9.71,-1.94 -12.62,-5.82 -2.91,-3.88 -4.46,-8.54 -4.46,-13.97 0,-3.69 0.78,-7.18 2.14,-10.29 1.35,-3.3 3.29,-5.63 5.82,-7.37 2.52,-1.75 5.62,-2.72 9.12,-2.72 0.19,0 0.39,0 0.58,0 4.27,0.19 7.95,2.13 10.86,5.63l0 -4.66 6.22 0 0 33.96c0,6.01 -0.78,10.48 -1.94,13 -1.37,2.52 -3.31,4.46 -6.02,6.02 -2.52,1.36 -5.43,2.13 -9.12,2.13 -0.19,0 -0.58,0 -0.78,0 -4.66,0 -8.54,-0.97 -11.25,-3.1 -2.91,-2.14 -4.27,-5.24 -4.27,-9.51l6.4 0.97c0.39,1.94 1.17,3.49 2.33,4.27 1.75,1.35 3.88,1.94 6.79,1.94 0.2,0 0.59,0 0.78,0zm42.11 -15.92c3.1,0 5.62,-1.16 7.56,-3.49 2.14,-2.33 3.11,-6.01 3.11,-11.06 0,-4.85 -0.97,-8.54 -3.11,-10.86 -2.13,-2.53 -4.65,-3.69 -7.56,-3.69 0,0 -0.2,0 -0.2,0 -2.91,0 -5.43,1.16 -7.56,3.49 -1.95,2.52 -3.11,6.02 -3.11,10.87 0,5.04 1.16,8.73 3.11,11.25 2.13,2.33 4.65,3.49 7.76,3.49zm0 15.92c2.71,-0.2 4.85,-0.78 6.4,-1.94 1.55,-1.17 2.72,-2.91 3.3,-5.05 0.38,-1.36 0.58,-4.27 0.58,-8.53 -2.91,3.29 -6.21,4.85 -10.28,5.04 -0.2,0 -0.39,0 -0.59,0 -5.43,0 -9.7,-1.94 -12.61,-5.82 -2.91,-3.88 -4.46,-8.54 -4.46,-13.97 0,-3.69 0.77,-7.18 2.13,-10.29 1.36,-3.3 3.3,-5.63 5.82,-7.37 2.53,-1.75 5.63,-2.72 9.12,-2.72 0.2,0 0.39,0 0.59,0 4.26,0.19 7.95,2.13 10.86,5.63l0 -4.66 6.02 0 0 33.96c0,6.01 -0.58,10.48 -1.75,13 -1.36,2.52 -3.3,4.46 -6.01,6.02 -2.53,1.36 -5.63,2.13 -9.12,2.13 -0.2,0 -0.59,0 -0.78,0 -4.66,0 -8.54,-0.97 -11.26,-3.1 -2.91,-2.14 -4.46,-5.24 -4.26,-9.51l6.4 0.97c0.39,1.94 1.16,3.49 2.33,4.27 1.55,1.35 3.88,1.94 6.79,1.94 0.19,0 0.58,0 0.78,0zm41.91 -33.19c4.46,-0.58 7.95,-1.35 10.09,-2.13 0,-0.97 0,-1.55 0,-1.75 0,-2.71 -0.58,-4.65 -1.75,-5.82 -1.75,-1.35 -4.27,-2.13 -7.56,-2.13 -0.2,0 -0.59,0 -0.78,0 -2.72,0 -4.85,0.58 -6.21,1.55 -1.55,1.17 -2.52,3.11 -3.3,5.82l-6.6 -0.77c0.78,-2.91 1.75,-5.05 2.91,-6.79 1.36,-1.75 3.5,-3.11 6.02,-3.89 2.13,-0.77 4.46,-1.36 7.18,-1.36 0.58,-0.19 1.16,-0.19 1.74,-0.19 3.3,0 6.02,0.58 8.16,1.36 2.13,0.77 3.49,1.75 4.65,2.91 0.97,1.17 1.55,2.72 1.94,4.46 0.2,1.17 0.39,3.3 0.39,6.21l0 8.74c0,6.2 0.19,10.28 0.39,11.83 0.39,1.55 0.77,3.3 1.74,4.66l-6.98 0c-0.78,-1.36 -1.16,-2.91 -1.36,-4.85 -2.52,2.13 -4.85,3.69 -7.18,4.46 -0.97,0.39 -2.33,0.78 -3.49,0.97 -1.17,0.19 -2.52,0.39 -3.69,0.39 -4.46,0 -7.76,-1.16 -10.09,-3.11 -2.13,-2.13 -3.3,-4.85 -3.3,-8.15 0,-1.94 0.39,-3.68 1.17,-5.23 0.97,-1.56 2.13,-2.92 3.49,-3.89 1.36,-0.97 3.11,-1.74 4.85,-2.13 1.17,-0.39 3.3,-0.78 5.82,-0.97 0.58,-0.2 1.17,-0.2 1.75,-0.2zm0 18.25c1.74,-0.2 3.3,-0.78 4.65,-1.56 1.94,-0.97 3.5,-2.52 4.47,-4.46 0.58,-1.55 0.97,-3.88 0.97,-6.79l0 -2.33c-2.33,0.97 -5.63,1.74 -10.09,2.33 -0.2,0 -0.39,0.19 -0.78,0.19 -2.71,0.39 -4.65,0.78 -5.82,1.36 -0.97,0.39 -1.94,1.17 -2.52,2.14 -0.58,0.97 -0.97,1.94 -0.97,3.1 0,1.75 0.78,3.3 2.13,4.46 1.17,1.17 3.3,1.75 5.82,1.75 0.78,0 1.56,0 2.14,-0.19zm69.27 4.46l0 0 0 -39.2 6.02 0 0 5.63c2.91,-4.27 6.98,-6.6 12.42,-6.6 2.32,0 4.65,0.58 6.59,1.36 1.94,0.77 3.5,1.94 4.46,3.3 0.98,1.35 1.56,3.1 1.95,5.04 0.38,1.17 0.38,3.3 0.38,6.41l0 24.06 -6.59 0 0 -23.87c0,-2.72 -0.2,-4.66 -0.78,-6.01 -0.58,-1.36 -1.36,-2.53 -2.72,-3.3 -1.35,-0.78 -2.91,-1.17 -4.65,-1.17 -2.91,0 -5.24,0.97 -7.38,2.72 -2.13,1.75 -3.1,5.24 -3.1,10.29l0 21.34 -6.6 0zm-27.17 -22.71c4.47,-0.58 7.96,-1.35 10.1,-2.13 0,-0.97 0,-1.55 0,-1.75 0,-2.71 -0.59,-4.65 -1.75,-5.82 -1.75,-1.35 -4.27,-2.13 -7.57,-2.13 -0.39,0 -0.58,0 -0.78,0 -2.71,0 -4.85,0.58 -6.2,1.55 -1.56,1.17 -2.53,3.11 -3.3,5.82l-6.6 -0.77c0.58,-2.91 1.55,-5.05 2.91,-6.79 1.36,-1.75 3.49,-3.11 6.02,-3.89 2.13,-0.77 4.46,-1.36 7.17,-1.36 0.59,-0.19 1.17,-0.19 1.75,-0.19 3.3,0 6.02,0.58 8.15,1.36 1.94,0.77 3.49,1.75 4.46,2.91 1.17,1.17 1.75,2.72 2.14,4.46 0.19,1.17 0.39,3.3 0.39,6.21l0 8.74c0,6.2 0.19,10.28 0.38,11.83 0.2,1.55 0.78,3.3 1.75,4.66l-6.98 0c-0.78,-1.36 -1.17,-2.91 -1.36,-4.85 -2.52,2.13 -4.85,3.69 -7.18,4.46 -1.17,0.39 -2.33,0.78 -3.5,0.97 -1.16,0.19 -2.52,0.39 -3.68,0.39 -4.46,0 -7.76,-1.16 -10.09,-3.11 -2.33,-2.13 -3.49,-4.85 -3.49,-8.15 0,-1.94 0.58,-3.68 1.35,-5.23 0.97,-1.56 2.14,-2.92 3.5,-3.89 1.36,-0.97 2.91,-1.74 4.85,-2.13 1.16,-0.39 3.1,-0.78 5.82,-0.97 0.58,-0.2 1.16,-0.2 1.74,-0.2zm0 18.25c1.75,-0.2 3.3,-0.78 4.66,-1.56 1.94,-0.97 3.5,-2.52 4.47,-4.46 0.58,-1.55 0.97,-3.88 0.97,-6.79l0 -2.33c-2.33,0.97 -5.63,1.74 -10.1,2.33 -0.19,0 -0.38,0.19 -0.77,0.19 -2.72,0.39 -4.66,0.78 -5.82,1.36 -1.17,0.39 -1.94,1.17 -2.52,2.14 -0.59,0.97 -0.97,1.94 -0.97,3.1 0,1.75 0.77,3.3 1.94,4.46 1.35,1.17 3.29,1.75 6.01,1.75 0.78,0 1.36,0 2.13,-0.19zm110.03 -49.68l1.16 0c4.08,0 7.37,0.58 9.9,1.75 2.52,0.96 4.46,2.71 5.82,5.04 1.55,2.14 2.13,4.66 2.13,7.18 0,2.13 -0.58,4.46 -1.74,6.41 -1.36,2.13 -3.3,3.68 -5.82,5.04 3.3,0.97 5.82,2.52 7.56,4.85 1.75,2.33 2.72,5.05 2.72,8.15 0,2.52 -0.58,5.05 -1.55,7.18 -1.17,2.13 -2.52,3.88 -4.08,5.04 -1.55,1.17 -3.49,1.95 -5.82,2.72 -2.52,0.59 -5.43,0.78 -8.92,0.78l-1.36 0 -19.21 0 0 -54.14 19.21 0zm0 22.7c2.91,0 5.24,-0.19 6.59,-0.58 1.75,-0.58 3.11,-1.36 4.08,-2.71 0.97,-1.17 1.36,-2.72 1.36,-4.66 0,-1.75 -0.39,-3.5 -1.36,-4.85 -0.78,-1.36 -2.14,-2.14 -3.69,-2.72 -1.36,-0.39 -3.68,-0.78 -6.98,-0.78 -0.39,0 -0.78,0 -1.17,0l-10.86 0 0 16.3 11.64 0c0.19,0 0.19,0 0.39,0zm0 25.03l1.36 0c2.32,0 4.07,0 5.04,-0.19 1.55,-0.39 2.91,-0.78 4.07,-1.55 1.17,-0.58 1.95,-1.55 2.72,-2.91 0.78,-1.36 1.17,-2.91 1.17,-4.66 0,-1.94 -0.58,-3.69 -1.55,-5.24 -1.17,-1.55 -2.53,-2.52 -4.47,-3.1 -1.75,-0.59 -4.46,-0.97 -7.76,-0.97l-0.58 0 -12.03 0 0 18.62 12.03 0zm72.76 6.41l0 0 0 -39.2 6.02 0 0 5.63c2.91,-4.27 6.98,-6.6 12.42,-6.6 2.52,0 4.65,0.58 6.59,1.36 1.94,0.77 3.5,1.94 4.47,3.3 0.97,1.35 1.74,3.1 2.13,5.04 0.19,1.17 0.39,3.3 0.39,6.41l0 24.06 -6.79 0 0 -23.87c0,-2.72 -0.2,-4.66 -0.78,-6.01 -0.39,-1.36 -1.36,-2.53 -2.72,-3.3 -1.35,-0.78 -2.9,-1.17 -4.65,-1.17 -2.72,0 -5.24,0.97 -7.38,2.72 -1.94,1.75 -3.1,5.24 -3.1,10.29l0 21.34 -6.6 0zm-27.16 -22.71c4.46,-0.58 7.95,-1.35 10.09,-2.13 0.19,-0.97 0.19,-1.55 0.19,-1.75 0,-2.71 -0.77,-4.65 -1.94,-5.82 -1.75,-1.35 -4.27,-2.13 -7.56,-2.13 -0.2,0 -0.59,0 -0.78,0 -2.72,0 -4.85,0.58 -6.21,1.55 -1.55,1.17 -2.52,3.11 -3.3,5.82l-6.41 -0.77c0.59,-2.91 1.56,-5.05 2.92,-6.79 1.36,-1.75 3.3,-3.11 5.82,-3.89 2.13,-0.77 4.46,-1.36 7.18,-1.36 0.58,-0.19 1.16,-0.19 1.74,-0.19 3.3,0 6.02,0.58 8.15,1.36 2.14,0.77 3.69,1.75 4.66,2.91 0.97,1.17 1.55,2.72 1.94,4.46 0.19,1.17 0.39,3.3 0.39,6.21l0 8.74c0,6.2 0.19,10.28 0.39,11.83 0.38,1.55 0.97,3.3 1.74,4.66l-6.98 0c-0.58,-1.36 -1.17,-2.91 -1.36,-4.85 -2.33,2.13 -4.85,3.69 -6.99,4.46 -1.16,0.39 -2.33,0.78 -3.68,0.97 -1.17,0.19 -2.53,0.39 -3.69,0.39 -4.27,0 -7.57,-1.16 -9.89,-3.11 -2.34,-2.13 -3.5,-4.85 -3.5,-8.15 0,-1.94 0.39,-3.68 1.16,-5.23 0.98,-1.56 2.14,-2.92 3.5,-3.89 1.36,-0.97 3.1,-1.74 4.85,-2.13 1.16,-0.39 3.3,-0.78 5.82,-0.97 0.58,-0.2 1.16,-0.2 1.75,-0.2zm0 18.25c1.74,-0.2 3.29,-0.78 4.65,-1.56 1.94,-0.97 3.5,-2.52 4.47,-4.46 0.77,-1.55 0.97,-3.88 0.97,-6.79l0 -2.33c-2.14,0.97 -5.63,1.74 -10.09,2.33 -0.2,0 -0.39,0.19 -0.78,0.19 -2.72,0.39 -4.66,0.78 -5.63,1.36 -1.16,0.39 -2.13,1.17 -2.71,2.14 -0.58,0.97 -0.97,1.94 -0.97,3.1 0,1.75 0.77,3.3 2.13,4.46 1.17,1.17 3.3,1.75 5.82,1.75 0.78,0 1.55,0 2.14,-0.19zm84.41 -0.98c2.91,0 5.62,-1.16 7.56,-3.49 2.14,-2.33 3.11,-6.01 3.11,-11.06 0,-4.85 -0.97,-8.54 -3.11,-10.86 -2.13,-2.53 -4.65,-3.69 -7.56,-3.69 -0.2,0 -0.2,0 -0.2,0 -2.91,0 -5.43,1.16 -7.56,3.49 -2.14,2.52 -3.11,6.02 -3.11,10.87 0,5.04 0.97,8.73 3.11,11.25 2.13,2.33 4.65,3.49 7.76,3.49zm0 15.92c2.71,-0.2 4.65,-0.78 6.2,-1.94 1.75,-1.17 2.91,-2.91 3.5,-5.05 0.39,-1.36 0.39,-4.27 0.39,-8.53 -2.72,3.29 -6.02,4.85 -10.09,5.04 -0.2,0 -0.59,0 -0.78,0 -5.43,0 -9.51,-1.94 -12.42,-5.82 -2.91,-3.88 -4.46,-8.54 -4.46,-13.97 0,-3.69 0.58,-7.18 1.94,-10.29 1.36,-3.3 3.49,-5.63 6.01,-7.37 2.52,-1.75 5.63,-2.72 9.12,-2.72 0.2,0 0.39,0 0.59,0 4.26,0.19 7.95,2.13 10.86,5.63l0 -4.66 6.02 0 0 33.96c0,6.01 -0.58,10.48 -1.75,13 -1.36,2.52 -3.3,4.46 -6.02,6.02 -2.52,1.36 -5.62,2.13 -9.11,2.13 -0.39,0 -0.59,0 -0.78,0 -4.66,0 -8.54,-0.97 -11.45,-3.1 -2.91,-2.14 -4.27,-5.24 -4.07,-9.51l6.4 0.97c0.39,1.94 0.97,3.49 2.33,4.27 1.55,1.35 3.88,1.94 6.79,1.94 0.19,0 0.39,0 0.78,0z"/>
 </g>
</svg>
