<svg id="Layer_1" data-name="Layer 1" xmlns="http://www.w3.org/2000/svg" viewBox="0 0 122.88 103.86"><defs><style>.cls-1{fill-rule:evenodd;}</style></defs><title>cod</title><path d="M33.8,51.87a29.79,29.79,0,0,1,8.94,1.32L40.06,61l-.64.39a12.59,12.59,0,0,0-2.93-1.1,13.07,13.07,0,0,0-3.08-.41,5.06,5.06,0,0,0-4.3,1.73c-.86,1.15-1.31,3.08-1.31,5.78,0,3.16.51,5.46,1.51,6.91a5.4,5.4,0,0,0,4.74,2.17,18.28,18.28,0,0,0,3.05-.27,14.85,14.85,0,0,0,3-.75l.77.48-.77,7.72a22.86,22.86,0,0,1-6.79.92c-5.25,0-9.18-1.37-11.84-4.1s-4-6.72-4-12,1.41-9.35,4.26-12.24,6.88-4.35,12.08-4.35Zm24.93,0c4.58,0,8.14,1.37,10.64,4.06s3.76,6.55,3.76,11.51c0,5.46-1.38,9.7-4.13,12.68s-6.65,4.49-11.69,4.49c-4.59,0-8.15-1.38-10.64-4.12s-3.76-6.64-3.76-11.69c0-5.4,1.39-9.59,4.13-12.52s6.64-4.41,11.69-4.41Zm-.88,7.8a5.17,5.17,0,0,0-2.88.66,3.71,3.71,0,0,0-1.39,2.32,21.59,21.59,0,0,0-.41,4.83,33.41,33.41,0,0,0,.43,6.15,4.89,4.89,0,0,0,1.49,2.93,4.92,4.92,0,0,0,3.1.82,5.22,5.22,0,0,0,2.88-.65,3.72,3.72,0,0,0,1.39-2.35,22.43,22.43,0,0,0,.42-4.85,31.83,31.83,0,0,0-.45-6.1,4.84,4.84,0,0,0-1.49-2.93,4.93,4.93,0,0,0-3.09-.83ZM91,52.21c4.66-.07,8.25,1.29,10.72,3.79s3.74,6.15,3.74,10.9c0,5.63-1.46,10-4.35,13s-7,4.53-12.45,4.53q-5.07,0-11.91-.43l.5-9.28-.5-22.3L91,52.21Zm-.48,24.95A4,4,0,0,0,94,75.33c.77-1.21,1.2-3.24,1.2-6a24.93,24.93,0,0,0-.5-5.61,5.37,5.37,0,0,0-1.55-3,4.51,4.51,0,0,0-3-.9,34.29,34.29,0,0,0-3.67.19l-.34,13.72.1,3a34.75,34.75,0,0,0,4.25.4Z"/><path d="M10.89,7.83h0a3,3,0,0,0-3,3V93a3.23,3.23,0,0,0,3,3H112.05a3,3,0,0,0,3-3V10.86a3,3,0,0,0-3-3H10.89ZM114.68,0a8.26,8.26,0,0,1,5.8,2.41h0a8.44,8.44,0,0,1,2.4,5.79V95.65c0,2.17-.53,4.7-2.4,5.79h0a8.23,8.23,0,0,1-5.79,2.42H8.19a8.23,8.23,0,0,1-5.79-2.42h0C.53,100.35,0,97.82,0,95.65V8.2A8.21,8.21,0,0,1,2.4,2.41h0A8.26,8.26,0,0,1,8.2,0Z"/><polygon class="cls-1" points="78.8 7.68 44.09 7.68 44.09 40.39 61.42 31.71 78.8 40.39 78.8 7.68 78.8 7.68"/></svg>