<?xml version="1.0" encoding="UTF-8"?>
<svg xmlns="http://www.w3.org/2000/svg" xmlns:xlink="http://www.w3.org/1999/xlink" width="612pt" height="792pt" viewBox="0 0 612 792" version="1.1">
<g id="surface1">
<path style=" stroke:none;fill-rule:nonzero;fill:rgb(92.498779%,16.899109%,14.099121%);fill-opacity:1;" d="M 201.042969 396.171875 L 199.261719 404.554688 C 204.433594 403.824219 209.609375 403.121094 214.785156 402.453125 L 220.738281 373.589844 C 215.460938 374.980469 210.191406 376.402344 204.933594 377.867188 Z M 47.480469 436.542969 C 63.726563 431.710938 80.132813 427.316406 96.808594 423.394531 L 98.980469 413.183594 C 97.777344 413.660156 96.570313 414.132813 95.367188 414.613281 C 79.210938 421.085938 62.847656 427.957031 47.480469 436.542969 Z M 336.003906 356.941406 L 337.851563 347.972656 C 335.84375 348.316406 333.835938 348.667969 331.824219 349.023438 Z M 554.492188 331.765625 C 526.386719 331.765625 498.375 332.359375 470.453125 333.796875 C 450.78125 334.804688 431.148438 336.230469 411.5625 338.15625 C 406.882813 338.617188 402.203125 339.105469 397.527344 339.625 L 387.339844 387.5625 C 392.066406 387.316406 396.789063 387.085938 401.515625 386.871094 C 420.832031 386.007813 440.160156 385.453125 459.496094 385.355469 C 463.753906 385.332031 468.011719 385.324219 472.269531 385.347656 C 485.996094 385.425781 525 385.347656 555.539063 385.289063 L 555.914063 385.289063 L 566.488281 331.765625 C 559.382813 331.765625 554.492188 331.765625 554.492188 331.765625 Z M 273.742188 395.894531 C 281.503906 395.15625 289.269531 394.457031 297.035156 393.800781 L 280.6875 363.214844 L 273.742188 395.894531 "/>
<path style=" stroke:none;fill-rule:nonzero;fill:rgb(19.198608%,23.098755%,59.199524%);fill-opacity:1;" d="M 91.441406 473.328125 L 103.164063 473.328125 L 103.953125 467.695313 L 92.265625 467.695313 L 93.394531 459.972656 L 105.476563 459.972656 L 106.265625 454.339844 L 89.535156 454.339844 L 84.785156 488.140625 L 102.433594 488.140625 L 103.222656 482.507813 L 90.101563 482.507813 L 91.441406 473.328125 "/>
<path style=" stroke:none;fill-rule:nonzero;fill:rgb(19.198608%,23.098755%,59.199524%);fill-opacity:1;" d="M 132.390625 454.339844 L 126.488281 454.339844 L 122.941406 460.222656 C 122.089844 461.648438 121.039063 463.480469 119.789063 465.71875 C 119.71875 465.464844 119.652344 465.261719 119.589844 465.109375 C 118.644531 462.285156 118.132813 460.761719 118.0625 460.535156 L 115.835938 454.339844 L 110.910156 454.339844 L 116.589844 471.15625 L 106.59375 488.140625 L 112.65625 488.140625 L 115.726563 483.074219 C 117.367188 480.335938 118.386719 478.523438 118.78125 477.652344 C 119.078125 478.777344 119.675781 480.636719 120.585938 483.230469 L 122.324219 488.140625 L 127.585938 488.140625 L 122.015625 472.113281 L 132.390625 454.339844 "/>
<path style=" stroke:none;fill-rule:nonzero;fill:rgb(19.198608%,23.098755%,59.199524%);fill-opacity:1;" d="M 148.808594 455.207031 C 147.859375 454.628906 146.570313 454.339844 144.9375 454.339844 L 135.769531 454.339844 L 131.023438 488.140625 L 135.683594 488.140625 L 137.484375 475.328125 L 140.453125 475.328125 C 142.453125 475.328125 143.820313 475.253906 144.550781 475.097656 C 145.800781 474.835938 146.796875 474.453125 147.535156 473.953125 C 148.277344 473.449219 148.964844 472.714844 149.609375 471.742188 C 150.246094 470.769531 150.789063 469.476563 151.230469 467.855469 C 151.671875 466.234375 151.894531 464.566406 151.894531 462.855469 C 151.894531 461.003906 151.617188 459.410156 151.0625 458.074219 C 150.507813 456.742188 149.757813 455.785156 148.808594 455.207031 Z M 146.503906 466.800781 C 146.035156 467.8125 145.394531 468.546875 144.578125 469.007813 C 143.761719 469.46875 142.136719 469.695313 139.695313 469.695313 L 138.273438 469.695313 L 139.640625 459.972656 L 142.941406 459.972656 C 144.441406 459.972656 145.40625 460.09375 145.839844 460.328125 C 146.273438 460.566406 146.609375 460.945313 146.851563 461.46875 C 147.089844 461.988281 147.210938 462.652344 147.210938 463.464844 C 147.210938 464.679688 146.972656 465.789063 146.503906 466.800781 "/>
<path style=" stroke:none;fill-rule:nonzero;fill:rgb(19.198608%,23.098755%,59.199524%);fill-opacity:1;" d="M 171.042969 455.136719 C 170.074219 454.605469 168.722656 454.339844 166.984375 454.339844 L 156.878906 454.339844 L 152.132813 488.140625 L 156.789063 488.140625 L 158.757813 474.148438 L 160.679688 474.148438 C 161.789063 474.148438 162.570313 474.371094 163.019531 474.816406 C 163.746094 475.570313 164.433594 477.039063 165.078125 479.21875 C 166.265625 483.261719 167.058594 486.234375 167.464844 488.140625 L 172.453125 488.140625 C 171.179688 483.3125 170.019531 479.578125 168.980469 476.9375 C 168.453125 475.628906 167.894531 474.578125 167.296875 473.773438 C 169.632813 473.328125 171.382813 472.175781 172.542969 470.304688 C 173.699219 468.4375 174.28125 466.066406 174.28125 463.191406 C 174.28125 461.179688 173.984375 459.464844 173.386719 458.050781 C 172.792969 456.636719 172.011719 455.667969 171.042969 455.136719 Z M 169.011719 466.292969 C 168.539063 467.246094 167.886719 467.945313 167.054688 468.390625 C 166.222656 468.835938 164.53125 469.058594 161.988281 469.058594 L 159.472656 469.058594 L 160.75 459.972656 L 165.972656 459.972656 C 167.367188 459.972656 168.273438 460.15625 168.695313 460.527344 C 169.375 461.144531 169.71875 462.0625 169.71875 463.292969 C 169.71875 464.339844 169.480469 465.339844 169.011719 466.292969 "/>
<path style=" stroke:none;fill-rule:nonzero;fill:rgb(19.198608%,23.098755%,59.199524%);fill-opacity:1;" d="M 175.992188 488.140625 L 193.636719 488.140625 L 194.429688 482.507813 L 181.308594 482.507813 L 182.648438 473.328125 L 194.367188 473.328125 L 195.15625 467.695313 L 183.46875 467.695313 L 184.597656 459.972656 L 196.679688 459.972656 L 197.46875 454.339844 L 180.738281 454.339844 L 175.992188 488.140625 "/>
<path style=" stroke:none;fill-rule:nonzero;fill:rgb(19.198608%,23.098755%,59.199524%);fill-opacity:1;" d="M 208.53125 459.246094 C 209.859375 459.246094 210.863281 459.675781 211.546875 460.535156 C 212.089844 461.226563 212.445313 462.164063 212.628906 463.332031 L 217.136719 463.332031 C 216.914063 460.519531 216.132813 458.238281 214.765625 456.5 C 213.300781 454.636719 211.230469 453.703125 208.558594 453.703125 C 205.925781 453.703125 203.917969 454.644531 202.53125 456.527344 C 201.144531 458.410156 200.449219 460.777344 200.449219 463.632813 C 200.449219 465.269531 200.683594 466.695313 201.152344 467.914063 C 201.621094 469.136719 202.265625 470.128906 203.085938 470.890625 C 203.90625 471.652344 205.207031 472.609375 206.984375 473.75 C 208.765625 474.890625 209.855469 475.71875 210.25 476.226563 C 210.59375 476.644531 210.816406 477.132813 210.953125 477.664063 C 211.039063 478.011719 211.097656 478.378906 211.097656 478.769531 C 211.097656 479.929688 210.75 480.917969 210.0625 481.734375 C 209.371094 482.554688 208.257813 482.960938 206.710938 482.960938 C 204.851563 482.960938 203.578125 482.359375 202.890625 481.15625 C 202.515625 480.515625 202.28125 479.351563 202.1875 477.664063 L 197.71875 477.664063 C 197.71875 479.746094 197.980469 481.609375 198.53125 483.230469 C 199.121094 484.972656 200.132813 486.332031 201.566406 487.3125 C 202.996094 488.289063 204.691406 488.777344 206.644531 488.777344 C 209.480469 488.777344 211.691406 487.71875 213.277344 485.597656 C 214.867188 483.480469 215.660156 480.921875 215.660156 477.929688 C 215.660156 477.839844 215.648438 477.757813 215.644531 477.664063 C 215.605469 475.371094 215.085938 473.472656 214.054688 471.988281 C 213.339844 470.9375 211.664063 469.574219 209.035156 467.894531 C 207.289063 466.769531 206.164063 465.882813 205.652344 465.234375 C 205.144531 464.605469 204.890625 463.800781 204.890625 462.828125 C 204.890625 461.796875 205.171875 460.941406 205.730469 460.261719 C 206.289063 459.585938 207.222656 459.246094 208.53125 459.246094 Z M 235.164063 471.988281 C 234.445313 470.9375 232.773438 469.574219 230.144531 467.894531 C 228.398438 466.769531 227.273438 465.882813 226.761719 465.234375 C 226.34375 464.71875 226.109375 464.078125 226.03125 463.332031 C 226.015625 463.167969 226 463.003906 226 462.828125 C 226 461.796875 226.277344 460.941406 226.839844 460.261719 C 227.398438 459.585938 228.332031 459.246094 229.640625 459.246094 C 230.96875 459.246094 231.972656 459.675781 232.65625 460.535156 C 233.199219 461.226563 233.554688 462.164063 233.738281 463.332031 L 238.246094 463.332031 C 238.027344 460.519531 237.242188 458.238281 235.875 456.5 C 234.410156 454.636719 232.339844 453.703125 229.667969 453.703125 C 227.035156 453.703125 225.027344 454.644531 223.640625 456.527344 C 222.300781 458.34375 221.613281 460.613281 221.566406 463.332031 C 221.566406 463.433594 221.558594 463.53125 221.558594 463.632813 C 221.558594 465.269531 221.789063 466.695313 222.261719 467.914063 C 222.730469 469.136719 223.375 470.128906 224.195313 470.890625 C 225.015625 471.652344 226.316406 472.609375 228.09375 473.75 C 229.875 474.890625 230.964844 475.71875 231.359375 476.226563 C 231.699219 476.644531 231.925781 477.132813 232.0625 477.664063 C 232.148438 478.011719 232.207031 478.378906 232.207031 478.769531 C 232.207031 479.929688 231.859375 480.917969 231.171875 481.734375 C 230.480469 482.554688 229.363281 482.960938 227.820313 482.960938 C 225.960938 482.960938 224.6875 482.359375 223.996094 481.15625 C 223.625 480.515625 223.390625 479.351563 223.296875 477.664063 L 218.828125 477.664063 C 218.828125 479.746094 219.089844 481.609375 219.640625 483.230469 C 220.230469 484.972656 221.242188 486.332031 222.675781 487.3125 C 224.105469 488.289063 225.800781 488.777344 227.753906 488.777344 C 230.589844 488.777344 232.800781 487.71875 234.386719 485.597656 C 235.976563 483.480469 236.769531 480.921875 236.769531 477.929688 C 236.769531 477.839844 236.757813 477.757813 236.753906 477.664063 C 236.714844 475.371094 236.195313 473.472656 235.164063 471.988281 "/>
<path style=" stroke:none;fill-rule:nonzero;fill:rgb(19.198608%,23.098755%,59.199524%);fill-opacity:1;" d="M 409.632813 454.339844 L 406.429688 476.964844 L 400.230469 454.339844 L 395.878906 454.339844 L 391.132813 488.140625 L 395.480469 488.140625 L 398.699219 465.425781 L 404.882813 488.140625 L 409.234375 488.140625 L 413.980469 454.339844 L 409.632813 454.339844 "/>
<path style=" stroke:none;fill-rule:nonzero;fill:rgb(19.198608%,23.098755%,59.199524%);fill-opacity:1;" d="M 426.007813 454.339844 L 413.226563 488.140625 L 418.078125 488.140625 L 420.816406 480.6875 L 429.8125 480.6875 L 430.554688 488.140625 L 434.972656 488.140625 L 431.316406 454.339844 Z M 422.890625 475.058594 L 427.90625 461.425781 L 429.257813 475.058594 Z M 422.890625 475.058594 "/>
<path style=" stroke:none;fill-rule:nonzero;fill:rgb(19.198608%,23.098755%,59.199524%);fill-opacity:1;" d="M 456.488281 454.339844 L 438.660156 454.339844 L 437.933594 459.972656 L 444.578125 459.972656 L 440.625 488.140625 L 445.28125 488.140625 L 449.238281 459.972656 L 455.761719 459.972656 L 456.488281 454.339844 "/>
<path style=" stroke:none;fill-rule:nonzero;fill:rgb(19.198608%,23.098755%,59.199524%);fill-opacity:1;" d="M 456.589844 488.140625 L 461.253906 488.140625 L 466 454.339844 L 461.339844 454.339844 L 456.589844 488.140625 "/>
<path style=" stroke:none;fill-rule:nonzero;fill:rgb(19.198608%,23.098755%,59.199524%);fill-opacity:1;" d="M 480.6875 453.703125 C 478.597656 453.703125 476.734375 454.339844 475.101563 455.609375 C 473.464844 456.882813 472.105469 458.613281 471.03125 460.800781 C 469.957031 462.992188 469.15625 465.570313 468.632813 468.546875 C 468.230469 470.769531 468.03125 472.878906 468.03125 474.882813 C 468.03125 477.039063 468.328125 479.179688 468.925781 481.296875 C 469.523438 483.417969 470.535156 485.191406 471.96875 486.628906 C 473.398438 488.0625 475.164063 488.777344 477.277344 488.777344 C 479.707031 488.777344 481.882813 487.875 483.804688 486.074219 C 485.730469 484.269531 487.253906 481.695313 488.378906 478.351563 C 489.496094 475.007813 490.058594 471.546875 490.058594 467.96875 C 490.058594 463.667969 489.195313 460.214844 487.472656 457.609375 C 485.746094 455.007813 483.488281 453.703125 480.6875 453.703125 Z M 484.347656 475.453125 C 483.585938 477.976563 482.617188 479.859375 481.453125 481.101563 C 480.28125 482.34375 479.0625 482.960938 477.796875 482.960938 C 476.238281 482.960938 474.984375 482.175781 474.027344 480.601563 C 473.070313 479.027344 472.59375 477.078125 472.59375 474.746094 C 472.59375 470.949219 473.3125 467.464844 474.75 464.285156 C 476.191406 461.109375 478.058594 459.519531 480.351563 459.519531 C 481.847656 459.519531 483.078125 460.277344 484.046875 461.796875 C 485.011719 463.316406 485.492188 465.410156 485.492188 468.082031 C 485.492188 470.472656 485.113281 472.933594 484.347656 475.453125 "/>
<path style=" stroke:none;fill-rule:nonzero;fill:rgb(19.198608%,23.098755%,59.199524%);fill-opacity:1;" d="M 506.546875 476.964844 L 500.347656 454.339844 L 495.996094 454.339844 L 491.246094 488.140625 L 495.597656 488.140625 L 498.816406 465.425781 L 505 488.140625 L 509.351563 488.140625 L 514.097656 454.339844 L 509.75 454.339844 L 506.546875 476.964844 "/>
<path style=" stroke:none;fill-rule:nonzero;fill:rgb(19.198608%,23.098755%,59.199524%);fill-opacity:1;" d="M 531.058594 471.988281 C 530.339844 470.9375 528.667969 469.574219 526.039063 467.894531 C 524.292969 466.769531 523.164063 465.882813 522.65625 465.234375 C 522.238281 464.71875 522.003906 464.078125 521.925781 463.332031 C 521.910156 463.167969 521.894531 463.003906 521.894531 462.828125 C 521.894531 461.796875 522.171875 460.941406 522.730469 460.261719 C 523.292969 459.585938 524.226563 459.246094 525.535156 459.246094 C 526.863281 459.246094 527.867188 459.675781 528.550781 460.535156 C 529.09375 461.226563 529.449219 462.164063 529.632813 463.332031 L 534.140625 463.332031 C 533.921875 460.519531 533.136719 458.238281 531.769531 456.5 C 530.304688 454.636719 528.234375 453.703125 525.558594 453.703125 C 522.929688 453.703125 520.921875 454.644531 519.53125 456.527344 C 518.195313 458.34375 517.507813 460.613281 517.460938 463.332031 C 517.457031 463.433594 517.449219 463.53125 517.449219 463.632813 C 517.449219 465.269531 517.6875 466.695313 518.15625 467.914063 C 518.625 469.136719 519.269531 470.128906 520.089844 470.890625 C 520.910156 471.652344 522.207031 472.609375 523.988281 473.75 C 525.769531 474.890625 526.855469 475.71875 527.253906 476.226563 C 527.597656 476.644531 527.820313 477.132813 527.953125 477.664063 C 528.042969 478.011719 528.097656 478.378906 528.097656 478.769531 C 528.097656 479.929688 527.753906 480.917969 527.066406 481.734375 C 526.375 482.554688 525.257813 482.960938 523.714844 482.960938 C 521.855469 482.960938 520.578125 482.359375 519.890625 481.15625 C 519.519531 480.515625 519.285156 479.351563 519.1875 477.664063 L 514.722656 477.664063 C 514.722656 479.746094 514.984375 481.609375 515.535156 483.230469 C 516.125 484.972656 517.136719 486.332031 518.566406 487.3125 C 520 488.289063 521.691406 488.777344 523.648438 488.777344 C 526.480469 488.777344 528.691406 487.71875 530.28125 485.597656 C 531.871094 483.480469 532.664063 480.921875 532.664063 477.929688 C 532.664063 477.839844 532.648438 477.757813 532.648438 477.664063 C 532.605469 475.371094 532.085938 473.472656 531.058594 471.988281 "/>
<path style=" stroke:none;fill-rule:nonzero;fill:rgb(19.198608%,23.098755%,59.199524%);fill-opacity:1;" d="M 257.953125 454.339844 L 245.171875 488.140625 L 250.023438 488.140625 L 252.765625 480.6875 L 261.757813 480.6875 L 262.496094 488.140625 L 266.917969 488.140625 L 263.261719 454.339844 Z M 254.835938 475.058594 L 259.851563 461.425781 L 261.203125 475.058594 Z M 254.835938 475.058594 "/>
<path style=" stroke:none;fill-rule:nonzero;fill:rgb(19.198608%,23.098755%,59.199524%);fill-opacity:1;" d="M 283.902344 481.21875 C 282.894531 482.382813 281.785156 482.960938 280.574219 482.960938 C 279.273438 482.960938 278.183594 482.222656 277.308594 480.738281 C 276.4375 479.257813 276 477.152344 276 474.4375 C 276 471.949219 276.335938 469.457031 277.007813 466.964844 C 277.683594 464.46875 278.582031 462.636719 279.710938 461.460938 C 280.835938 460.289063 282.046875 459.699219 283.34375 459.699219 C 284.523438 459.699219 285.472656 460.144531 286.183594 461.03125 C 286.765625 461.761719 287.183594 462.875 287.453125 464.332031 L 292.027344 464.332031 C 291.726563 461.113281 290.847656 458.546875 289.386719 456.648438 C 287.871094 454.683594 285.882813 453.703125 283.429688 453.703125 C 281.238281 453.703125 279.21875 454.550781 277.363281 456.246094 C 275.503906 457.941406 274.050781 460.390625 273.007813 463.585938 C 271.960938 466.785156 271.4375 470.3125 271.4375 474.164063 C 271.4375 478.914063 272.214844 482.535156 273.777344 485.03125 C 275.335938 487.527344 277.503906 488.777344 280.277344 488.777344 C 282.738281 488.777344 284.886719 487.777344 286.71875 485.777344 C 288.554688 483.78125 289.929688 480.894531 290.847656 477.109375 L 290.351563 477 L 285.914063 477 C 285.425781 478.804688 284.765625 480.226563 283.902344 481.21875 "/>
<path style=" stroke:none;fill-rule:nonzero;fill:rgb(19.198608%,23.098755%,59.199524%);fill-opacity:1;" d="M 311.558594 455.136719 C 310.589844 454.605469 309.242188 454.339844 307.503906 454.339844 L 297.394531 454.339844 L 292.648438 488.140625 L 297.308594 488.140625 L 299.273438 474.148438 L 301.195313 474.148438 C 302.308594 474.148438 303.085938 474.371094 303.535156 474.816406 C 304.261719 475.570313 304.949219 477.039063 305.59375 479.21875 C 306.777344 483.261719 307.578125 486.234375 307.980469 488.140625 L 312.972656 488.140625 C 311.691406 483.3125 310.535156 479.578125 309.492188 476.9375 C 308.96875 475.628906 308.410156 474.578125 307.8125 473.773438 C 310.148438 473.328125 311.898438 472.175781 313.058594 470.304688 C 314.21875 468.4375 314.796875 466.066406 314.796875 463.191406 C 314.796875 461.179688 314.5 459.464844 313.902344 458.050781 C 313.308594 456.636719 312.527344 455.667969 311.558594 455.136719 Z M 309.523438 466.292969 C 309.054688 467.246094 308.402344 467.945313 307.570313 468.390625 C 306.738281 468.835938 305.046875 469.058594 302.503906 469.058594 L 299.988281 469.058594 L 301.265625 459.972656 L 306.488281 459.972656 C 307.886719 459.972656 308.792969 460.15625 309.210938 460.527344 C 309.890625 461.144531 310.230469 462.0625 310.230469 463.292969 C 310.230469 464.339844 309.996094 465.339844 309.523438 466.292969 "/>
<path style=" stroke:none;fill-rule:nonzero;fill:rgb(19.198608%,23.098755%,59.199524%);fill-opacity:1;" d="M 329.5625 453.703125 C 327.472656 453.703125 325.605469 454.339844 323.972656 455.609375 C 322.335938 456.882813 320.980469 458.613281 319.902344 460.800781 C 318.828125 462.992188 318.027344 465.570313 317.503906 468.546875 C 317.105469 470.769531 316.902344 472.878906 316.902344 474.882813 C 316.902344 477.039063 317.199219 479.179688 317.796875 481.296875 C 318.394531 483.417969 319.40625 485.191406 320.839844 486.628906 C 322.269531 488.0625 324.039063 488.777344 326.148438 488.777344 C 328.574219 488.777344 330.753906 487.875 332.679688 486.074219 C 334.601563 484.269531 336.125 481.695313 337.246094 478.351563 C 338.367188 475.007813 338.929688 471.546875 338.929688 467.96875 C 338.929688 463.667969 338.066406 460.214844 336.34375 457.609375 C 334.621094 455.007813 332.359375 453.703125 329.5625 453.703125 Z M 333.21875 475.453125 C 332.457031 477.976563 331.492188 479.859375 330.320313 481.101563 C 329.152344 482.34375 327.9375 482.960938 326.667969 482.960938 C 325.109375 482.960938 323.855469 482.175781 322.898438 480.601563 C 321.945313 479.027344 321.464844 477.078125 321.464844 474.746094 C 321.464844 470.949219 322.183594 467.464844 323.625 464.285156 C 325.0625 461.109375 326.929688 459.519531 329.226563 459.519531 C 330.71875 459.519531 331.949219 460.277344 332.917969 461.796875 C 333.882813 463.316406 334.363281 465.410156 334.363281 468.082031 C 334.363281 470.472656 333.984375 472.933594 333.21875 475.453125 "/>
<path style=" stroke:none;fill-rule:nonzero;fill:rgb(19.198608%,23.098755%,59.199524%);fill-opacity:1;" d="M 351.550781 459.246094 C 352.878906 459.246094 353.886719 459.675781 354.566406 460.535156 C 355.109375 461.226563 355.464844 462.164063 355.648438 463.332031 L 360.152344 463.332031 C 359.9375 460.519531 359.152344 458.238281 357.785156 456.5 C 356.316406 454.636719 354.25 453.703125 351.578125 453.703125 C 348.945313 453.703125 346.9375 454.644531 345.550781 456.527344 C 344.210938 458.34375 343.523438 460.613281 343.476563 463.332031 C 343.476563 463.433594 343.46875 463.53125 343.46875 463.632813 C 343.46875 465.269531 343.699219 466.695313 344.171875 467.914063 C 344.644531 469.136719 345.285156 470.128906 346.105469 470.890625 C 346.925781 471.652344 348.226563 472.609375 350.003906 473.75 C 351.785156 474.890625 352.871094 475.71875 353.269531 476.226563 C 353.609375 476.644531 353.839844 477.132813 353.972656 477.664063 C 354.058594 478.011719 354.117188 478.378906 354.117188 478.769531 C 354.117188 479.929688 353.769531 480.917969 353.082031 481.734375 C 352.394531 482.554688 351.273438 482.960938 349.730469 482.960938 C 347.871094 482.960938 346.597656 482.359375 345.90625 481.15625 C 345.535156 480.515625 345.300781 479.351563 345.203125 477.664063 L 340.734375 477.664063 C 340.734375 479.746094 341 481.609375 341.550781 483.230469 C 342.140625 484.972656 343.152344 486.332031 344.585938 487.3125 C 346.019531 488.289063 347.710938 488.777344 349.664063 488.777344 C 352.496094 488.777344 354.710938 487.71875 356.296875 485.597656 C 357.886719 483.480469 358.679688 480.921875 358.679688 477.929688 C 358.679688 477.839844 358.664063 477.757813 358.664063 477.664063 C 358.625 475.371094 358.105469 473.472656 357.074219 471.988281 C 356.355469 470.9375 354.683594 469.574219 352.054688 467.894531 C 350.3125 466.769531 349.183594 465.882813 348.671875 465.234375 C 348.253906 464.71875 348.019531 464.078125 347.941406 463.332031 C 347.925781 463.167969 347.910156 463.003906 347.910156 462.828125 C 347.910156 461.796875 348.1875 460.941406 348.746094 460.261719 C 349.308594 459.585938 350.242188 459.246094 351.550781 459.246094 Z M 378.183594 471.988281 C 377.464844 470.9375 375.792969 469.574219 373.164063 467.894531 C 371.417969 466.769531 370.289063 465.882813 369.78125 465.234375 C 369.363281 464.71875 369.128906 464.078125 369.050781 463.332031 C 369.035156 463.167969 369.019531 463.003906 369.019531 462.828125 C 369.019531 461.796875 369.296875 460.941406 369.855469 460.261719 C 370.417969 459.585938 371.351563 459.246094 372.660156 459.246094 C 373.988281 459.246094 374.992188 459.675781 375.675781 460.535156 C 376.21875 461.226563 376.570313 462.164063 376.757813 463.332031 L 381.265625 463.332031 C 381.046875 460.519531 380.261719 458.238281 378.894531 456.5 C 377.425781 454.636719 375.359375 453.703125 372.6875 453.703125 C 370.054688 453.703125 368.046875 454.644531 366.65625 456.527344 C 365.320313 458.34375 364.632813 460.613281 364.585938 463.332031 C 364.582031 463.433594 364.574219 463.53125 364.574219 463.632813 C 364.574219 465.269531 364.8125 466.695313 365.28125 467.914063 C 365.753906 469.136719 366.394531 470.128906 367.214844 470.890625 C 368.03125 471.652344 369.332031 472.609375 371.113281 473.75 C 372.894531 474.890625 373.984375 475.71875 374.378906 476.226563 C 374.722656 476.644531 374.945313 477.132813 375.078125 477.664063 C 375.167969 478.011719 375.222656 478.378906 375.222656 478.769531 C 375.222656 479.929688 374.878906 480.917969 374.191406 481.734375 C 373.5 482.554688 372.382813 482.960938 370.839844 482.960938 C 368.980469 482.960938 367.703125 482.359375 367.015625 481.15625 C 366.644531 480.515625 366.410156 479.351563 366.3125 477.664063 L 361.847656 477.664063 C 361.847656 479.746094 362.109375 481.609375 362.660156 483.230469 C 363.25 484.972656 364.261719 486.332031 365.691406 487.3125 C 367.125 488.289063 368.816406 488.777344 370.773438 488.777344 C 373.609375 488.777344 375.820313 487.71875 377.40625 485.597656 C 378.996094 483.480469 379.789063 480.921875 379.789063 477.929688 C 379.789063 477.839844 379.773438 477.757813 379.773438 477.664063 C 379.734375 475.371094 379.210938 473.472656 378.183594 471.988281 "/>
<path style=" stroke:none;fill-rule:nonzero;fill:rgb(19.198608%,23.098755%,59.199524%);fill-opacity:1;" d="M 459.496094 385.355469 C 440.160156 385.453125 420.832031 386.007813 401.515625 386.871094 L 391.269531 436.542969 L 509.789063 436.542969 L 517.816406 397.609375 L 456.890625 397.617188 Z M 166.289063 284.847656 C 166.398438 284.324219 166.484375 283.90625 166.546875 283.613281 C 166.484375 283.910156 166.398438 284.320313 166.289063 284.847656 Z M 166.65625 283.613281 C 166.65625 283.613281 166.640625 283.6875 166.613281 283.820313 C 166.597656 283.90625 166.574219 284.015625 166.546875 284.15625 C 166.484375 284.449219 166.398438 284.867188 166.289063 285.386719 C 166.109375 286.273438 165.855469 287.492188 165.554688 288.957031 C 162.59375 303.3125 154.378906 343.132813 150.265625 363.078125 C 150.046875 364.140625 149.839844 365.144531 149.644531 366.085938 C 149.660156 366.023438 149.671875 365.972656 149.683594 365.910156 C 149.664063 366.003906 149.644531 366.089844 149.628906 366.179688 C 149.621094 366.207031 149.617188 366.230469 149.609375 366.261719 C 149.320313 367.667969 149.054688 368.949219 148.828125 370.046875 C 148.785156 370.257813 148.746094 370.457031 148.703125 370.65625 C 148.660156 370.871094 148.617188 371.078125 148.574219 371.277344 C 148.496094 371.660156 148.421875 372.015625 148.355469 372.339844 C 148.34375 372.398438 148.332031 372.460938 148.320313 372.519531 C 148.222656 372.980469 148.144531 373.378906 148.074219 373.707031 C 147.957031 374.28125 147.878906 374.648438 147.859375 374.757813 C 146.136719 383.105469 143.699219 388.78125 134.828125 390.917969 L 122.980469 390.917969 L 103.710938 390.921875 L 98.980469 413.183594 L 96.808594 423.394531 L 95.667969 428.761719 L 94.273438 435.332031 L 94.109375 436.101563 L 94.246094 436.105469 L 94.132813 436.667969 L 130.335938 436.667969 L 130.335938 436.542969 L 154.300781 436.542969 C 154.65625 436.488281 155.015625 436.441406 155.367188 436.390625 L 155.371094 436.390625 C 179.636719 432.5625 193.503906 420.171875 198.683594 407.269531 L 199.261719 404.554688 L 201.042969 396.171875 L 204.933594 377.867188 L 224.960938 283.613281 Z M 481.113281 283.628906 L 481.113281 283.613281 L 422.8125 283.613281 L 411.5625 338.15625 C 431.148438 336.230469 450.78125 334.804688 470.453125 333.796875 L 472.789063 322.800781 L 533.246094 322.800781 L 541.328125 283.621094 Z M 409.429688 283.613281 L 351.125 283.613281 L 337.851563 347.972656 L 336.003906 356.941406 L 331.824219 349.023438 L 297.519531 283.996094 L 297.316406 283.613281 L 239.296875 283.613281 L 220.738281 373.589844 L 214.785156 402.453125 L 207.757813 436.542969 L 265.105469 436.542969 L 273.742188 395.894531 L 280.6875 363.214844 L 297.035156 393.800781 L 319.667969 436.132813 L 319.886719 436.542969 L 376.933594 436.542969 L 387.339844 387.5625 L 397.527344 339.625 L 409.429688 283.613281 "/>
</g>
</svg>
