<?xml version="1.0" encoding="UTF-8"?>
<!DOCTYPE svg PUBLIC "-//W3C//DTD SVG 1.1//EN" "http://www.w3.org/Graphics/SVG/1.1/DTD/svg11.dtd">
<!-- Creator: CorelDRAW X5 -->
<svg xmlns="http://www.w3.org/2000/svg" xml:space="preserve" width="96.2648mm" height="40.64mm" style="shape-rendering:geometricPrecision; text-rendering:geometricPrecision; image-rendering:optimizeQuality; fill-rule:evenodd; clip-rule:evenodd"
viewBox="0 0 9626 4064"
 xmlns:xlink="http://www.w3.org/1999/xlink">
 <defs>
  <style type="text/css">
   <![CDATA[
    .fil1 {fill:black}
    .fil0 {fill:#E41E26}
    .fil2 {fill:white}
    .fil3 {fill:black;fill-rule:nonzero}
   ]]>
  </style>
 </defs>
 <g id="Layer_x0020_1">
  <metadata id="CorelCorpID_0Corel-Layer"/>
  <path class="fil0" d="M3332 1062c-195,0 -370,126 -494,272l0 -243 -519 0 0 1685 545 0 0 -853c0,-293 135,-416 310,-416 158,0 255,107 255,361l0 908 545 0 0 -931c0,-546 -278,-783 -643,-783zm3902 1491l0 313c0,0 5,325 -339,244l0 0 -32 443c67,14 904,172 904,-607l12 -393 0 -1462 -545 0 0 1462zm-2646 -1657c201,0 333,-143 333,-338 0,-185 -132,-319 -333,-319 -201,0 -333,143 -333,328 0,185 132,328 333,328zm-273 1880l545 0 0 -1685 -545 0 0 1685zm1911 -1714c-195,0 -370,126 -494,272l0 -243 -519 0 0 1685 545 0 0 -853c0,-293 135,-416 310,-416 158,0 255,107 255,361l0 908 545 0 0 -931c0,-546 -278,-783 -643,-783zm1280 -166c201,0 333,-143 333,-338 0,-185 -132,-319 -333,-319 -201,0 -333,143 -333,328 0,185 132,328 333,328zm1334 146c-244,0 -579,125 -742,280l279 300c106,-94 248,-161 397,-161 215,0 310,77 318,256l-450 45c-480,48 -627,258 -627,583 0,230 235,472 608,472 177,0 413,-68 491,-237l0 196 508 0 2 -944c1,-559 -280,-791 -785,-791zm-69 1407c-129,0 -237,-72 -237,-176 0,-107 111,-197 286,-209l295 -20 0 150c-64,213 -224,256 -344,256z"/>
  <path class="fil1" d="M3045 3739l-257 -365 247 -349 -205 0 -145 208 -141 -208 -216 0 247 354 -256 359 210 0 151 -219 146 219 219 0zm487 -724c-89,0 -161,31 -209,93l0 -82 -184 0 0 971 193 0 0 -333c49,58 117,86 200,86 187,0 331,-143 331,-367 0,-224 -145,-367 -331,-367zm-33 565c-96,0 -169,-74 -169,-198 0,-123 73,-198 169,-198 96,0 169,74 169,198 0,123 -73,198 -169,198zm677 -460l0 -94 -184 0 0 713 193 0 0 -337c0,-137 70,-199 177,-199 15,0 27,1 43,3l0 -191c-103,0 -182,36 -229,105zm989 265c0,-229 -151,-370 -346,-370 -203,0 -355,154 -355,367 0,212 150,367 380,367 120,0 213,-40 274,-115l-103 -119c-46,46 -96,69 -167,69 -101,0 -172,-54 -190,-143l503 0c1,-17 4,-40 4,-56zm-345 -213c87,0 150,58 163,149l-328 0c14,-91 77,-149 164,-149zm697 578c199,0 314,-94 314,-227 0,-281 -402,-163 -402,-285 0,-37 37,-66 124,-66 61,0 126,13 192,53l64 -147c-63,-40 -164,-62 -256,-62 -194,0 -308,95 -308,231 0,285 402,166 402,282 0,40 -33,65 -122,65 -82,0 -172,-28 -231,-69l-64 149c62,44 176,77 288,77zm656 0c199,0 314,-94 314,-227 0,-281 -402,-163 -402,-285 0,-37 37,-66 124,-66 61,0 126,13 192,53l64 -147c-63,-40 -164,-62 -256,-62 -194,0 -308,95 -308,231 0,285 402,166 402,282 0,40 -33,65 -122,65 -82,0 -172,-28 -231,-69l-64 149c62,44 176,77 288,77z"/>
  <path class="fil0" d="M961 0c531,0 961,430 961,961 0,13 0,25 -1,37 0,2 0,4 0,6 -3,73 -15,144 -33,212 -52,211 -182,548 -506,983 -183,246 -320,600 -421,969 -101,-368 -238,-723 -421,-969 -344,-461 -469,-812 -514,-1019 -6,-26 -11,-53 -15,-80 -13,-86 -10,-131 -10,-131l0 0c0,-2 0,-5 0,-7 0,-531 430,-961 961,-961zm0 176c433,0 784,351 784,784 0,433 -351,784 -784,784 -433,0 -784,-351 -784,-784 0,-433 351,-784 784,-784z"/>
  <path class="fil1" d="M961 267c383,0 694,311 694,694 0,383 -311,694 -694,694 -383,0 -694,-311 -694,-694 0,-383 311,-694 694,-694z"/>
  <path class="fil2" d="M612 664l699 0c132,0 239,108 239,239l0 0c0,132 -108,239 -239,239l-699 0c-132,0 -239,-108 -239,-239l0 0c0,-132 108,-239 239,-239zm53 101c76,0 138,62 138,138 0,76 -62,138 -138,138 -76,0 -138,-62 -138,-138 0,-76 62,-138 138,-138zm594 0c76,0 138,62 138,138 0,76 -62,138 -138,138 -76,0 -138,-62 -138,-138 0,-76 62,-138 138,-138zm5 16c33,0 60,27 60,60 0,33 -27,60 -60,60 -33,0 -60,-27 -60,-60 0,-33 27,-60 60,-60zm-594 0c33,0 60,27 60,60 0,33 -27,60 -60,60 -33,0 -60,-27 -60,-60 0,-33 27,-60 60,-60z"/>
  <path class="fil3" d="M1207 2740l428 263 0 0 0 0 0 45 0 584 0 35 -30 18 -645 380 -644 -380 -30 -18 0 -35 0 -628 50 -31 377 -232c16,35 31,71 47,108l-304 187 314 193 191 113 191 -113 313 -193 -305 -187c15,-37 31,-73 47,-108zm-305 706l-2 -2 -496 -293 0 444 498 294 0 -444z"/>
 </g>
</svg>
